<svg xmlns="http://www.w3.org/2000/svg" version="1.1" xmlns:xlink="http://www.w3.org/1999/xlink" width="2000" height="1500" viewBox="0 0 2000 1500"><rect width="2000" height="1500" x="0" y="0" id="background" stroke="transparent" fill="#1a1a2e"></rect><svg xml:space="preserve" width="1500" height="1125" data-version="2" data-id="lg_RVC1y7tNgPKoas6Yaa" viewBox="0 0 609 609" x="250" y="187.5"><rect width="100%" height="100%" fill="transparent"></rect><path fill="#6a5acd" d="M424.563 603.12h-320.17c-54.317 0-98.513-44.196-98.513-98.514V110.55c0-54.318 44.196-98.513 98.514-98.513h320.169a24.628 24.628 0 0 1 24.628 24.628v394.055a24.628 24.628 0 0 1-24.628 24.628h-320.17c-27.158 0-49.256 22.098-49.256 49.257s22.098 49.257 49.257 49.257h320.169a24.628 24.628 0 0 1 0 49.256m-320.17-197.028h295.541V61.295h-295.54c-27.16 0-49.257 22.097-49.257 49.256v308.871a97.775 97.775 0 0 1 49.257-13.33"></path><path fill="#6a5acd" d="M424.563 529.234h-320.17a24.628 24.628 0 0 1 0-49.257h320.17a24.628 24.628 0 0 1 0 49.257M535.39 603.12c-33.95 0-61.571-27.62-61.571-61.57V110.55a24.7 24.7 0 0 1 2.598-11.015l36.942-73.885a24.635 24.635 0 0 1 44.06 0l36.943 73.885a24.702 24.702 0 0 1 2.599 11.015v430.997c0 33.95-27.621 61.571-61.571 61.571m0-49.256c6.79 0 12.314-5.523 12.314-12.315v-36.942h-24.629v36.942c0 6.792 5.523 12.315 12.315 12.315m0-462.128-12.315 24.629v338.985h24.629V116.364zm-406.369 117.33h197.027a24.628 24.628 0 0 1 24.629 24.628v98.514a24.628 24.628 0 0 1-24.629 24.628H129.022a24.628 24.628 0 0 1-24.628-24.628v-98.514a24.628 24.628 0 0 1 24.628-24.628m24.628 98.514h147.77v-49.257H153.65zm-24.628-172.4h197.027a24.628 24.628 0 0 1 0 49.258H129.022a24.628 24.628 0 0 1 0-49.257"></path></svg></svg>